<svg width="53" height="51" viewBox="0 0 53 51" fill="none" xmlns="http://www.w3.org/2000/svg">
<path d="M17.876 2.264C19.5987 2.264 21.0267 2.468 22.16 2.876C23.2933 3.23866 24.2227 3.71466 24.948 4.304C25.5373 4.75733 26.0133 5.256 26.376 5.8C26.7387 6.344 27.0107 6.888 27.192 7.432C27.3733 7.976 27.464 8.49733 27.464 8.996C27.464 10.1293 27.056 11.0133 26.24 11.648C25.4693 12.2827 24.608 12.6 23.656 12.6C22.7493 12.6 21.9333 12.3053 21.208 11.716C20.4827 11.1267 20.12 10.288 20.12 9.2C20.12 8.20266 20.46 7.364 21.14 6.684C21.82 5.95866 22.6813 5.55066 23.724 5.46C23.5427 4.87066 22.976 4.372 22.024 3.964C21.1173 3.51066 19.9613 3.284 18.556 3.284C16.244 3.284 14.34 3.98666 12.844 5.392C11.3933 6.752 10.668 8.74666 10.668 11.376C10.668 12.6453 10.8947 13.9373 11.348 15.252C11.8467 16.5667 12.776 17.8587 14.136 19.128C14.9067 18.992 15.7 18.9013 16.516 18.856C17.332 18.7653 17.944 18.72 18.352 18.72C19.168 18.72 19.8253 18.856 20.324 19.128C20.8227 19.4 21.072 19.7853 21.072 20.284C21.072 20.692 20.8907 21.0093 20.528 21.236C20.2107 21.4627 19.7573 21.576 19.168 21.576C18.3067 21.576 17.4 21.3947 16.448 21.032C15.496 20.624 14.748 20.3067 14.204 20.08C11.5747 20.8507 9.444 22.12 7.812 23.888C6.18 25.6107 5.364 28.0587 5.364 31.232C5.364 34.36 6.18 37.012 7.812 39.188C9.444 41.364 11.62 43.0413 14.34 44.22C17.1053 45.3533 20.188 45.92 23.588 45.92C25.9907 45.92 28.2573 45.648 30.388 45.104C32.564 44.5147 34.468 43.676 36.1 42.588C37.7773 41.5 39.092 40.208 40.044 38.712C40.996 37.1707 41.472 35.4253 41.472 33.476C41.472 32.6147 41.2907 31.5267 40.928 30.212C40.5653 28.852 39.8173 27.5373 38.684 26.268C37.5507 24.9533 35.8053 23.9333 33.448 23.208L34.264 22.528C37.5733 23.5253 39.9307 25.1347 41.336 27.356C42.7413 29.532 43.444 31.98 43.444 34.7C43.444 37.42 42.628 40.0267 40.996 42.52C39.364 45.0133 37.0067 47.0533 33.924 48.64C30.8413 50.1813 27.1013 50.952 22.704 50.952C19.7573 50.952 16.9467 50.5667 14.272 49.796C11.6427 49.0253 9.308 47.9147 7.268 46.464C5.228 44.968 3.61867 43.1773 2.44 41.092C1.26133 39.0067 0.672 36.6493 0.672 34.02C0.672 31.572 1.148 29.4867 2.1 27.764C3.052 25.996 4.23067 24.5453 5.636 23.412C7.04133 22.2787 8.44667 21.4173 9.852 20.828C11.2573 20.1933 12.3907 19.7627 13.252 19.536C11.756 18.856 10.4867 18.0627 9.444 17.156C8.44667 16.204 7.676 15.184 7.132 14.096C6.63333 12.9627 6.384 11.852 6.384 10.764C6.384 9.676 6.63333 8.63333 7.132 7.636C7.63067 6.59333 8.356 5.664 9.308 4.848C10.26 4.032 11.4387 3.39733 12.844 2.944C14.2947 2.49066 15.972 2.264 17.876 2.264ZM42.628 0.903996C45.4387 0.903996 47.796 1.72 49.7 3.352C51.604 4.93866 52.556 7.18267 52.556 10.084C52.556 11.6253 52.2613 13.008 51.672 14.232C51.128 15.4107 50.3573 16.4533 49.36 17.36C48.408 18.2667 47.32 19.0147 46.096 19.604C45.0533 20.1027 43.6707 20.6467 41.948 21.236C40.2707 21.8253 38.4573 22.4147 36.508 23.004C34.604 23.5933 32.768 24.1827 31 24.772C29.2773 25.316 27.872 25.792 26.784 26.2C25.1067 26.8347 23.6787 27.628 22.5 28.58C21.3667 29.4867 20.8 30.6653 20.8 32.116C20.8 33.2947 21.14 34.292 21.82 35.108C22.5 35.924 23.316 36.536 24.268 36.944C25.2653 37.352 26.1947 37.556 27.056 37.556C27.464 37.556 27.9627 37.5107 28.552 37.42C29.1867 37.284 29.7533 37.1027 30.252 36.876C30.7507 36.6493 31.0453 36.3773 31.136 36.06C30.4107 35.924 29.6853 35.6067 28.96 35.108C28.28 34.564 27.94 33.7253 27.94 32.592C27.94 31.504 28.3027 30.6427 29.028 30.008C29.7533 29.3733 30.6373 29.056 31.68 29.056C32.768 29.056 33.6293 29.396 34.264 30.076C34.944 30.756 35.284 31.64 35.284 32.728C35.284 33.9973 34.8533 35.0853 33.992 35.992C33.176 36.8533 32.1333 37.5107 30.864 37.964C29.64 38.372 28.416 38.576 27.192 38.576C25.9227 38.576 24.6307 38.304 23.316 37.76C22.0013 37.216 20.9133 36.3773 20.052 35.244C19.1907 34.0653 18.76 32.524 18.76 30.62C18.76 29.0333 19.1 27.628 19.78 26.404C20.5053 25.18 21.5707 24.092 22.976 23.14C24.3813 22.188 26.104 21.372 28.144 20.692C29.504 20.2387 31.1587 19.74 33.108 19.196C35.0573 18.652 37.052 18.0627 39.092 17.428C41.1773 16.7933 43.0587 16.0907 44.736 15.32C47.0027 14.2773 48.544 13.212 49.36 12.124C50.176 11.036 50.584 9.92533 50.584 8.792C50.584 7.47733 50.2213 6.32133 49.496 5.324C48.7707 4.28133 47.796 3.46533 46.572 2.876C45.3933 2.24133 44.1013 1.924 42.696 1.924C42.152 1.924 41.6987 1.96933 41.336 2.06C40.9733 2.15067 40.7467 2.30933 40.656 2.536C41.2907 2.85333 41.7667 3.30666 42.084 3.896C42.4013 4.48533 42.56 5.07467 42.56 5.664C42.56 6.616 42.1747 7.40933 41.404 8.044C40.6787 8.67866 39.7947 8.996 38.752 8.996C37.8907 8.996 37.0747 8.724 36.304 8.18C35.5333 7.59067 35.148 6.72933 35.148 5.596C35.148 4.41733 35.5333 3.488 36.304 2.808C37.12 2.128 38.0947 1.652 39.228 1.38C40.4067 1.06266 41.54 0.903996 42.628 0.903996Z" fill="#AC1313"/>
</svg>
